inDegrees=no
num_controls=7
num_derivatives=13
num_iterations=141
num_multipliers=7
num_parameters=0
num_slacks=7
num_states=26
objective=5.779711
objective_accelerations=0.489821
objective_balance=0.048310
objective_effort=0.457177
objective_height=4.689730
objective_ligament=0.094673
solver_duration=1456.594826
status=Solve_Succeeded
success=true
DataType=double
version=3
OpenSimVersion=4.4-2022-07-23-0e9fedc
endheader
time	/jointset/ground_pelvis/pelvis_tilt/value	/jointset/ground_pelvis/pelvis_tx/value	/jointset/ground_pelvis/pelvis_ty/value	/jointset/hip_l/hip_flexion_l/value	/jointset/hip_l/hip_adduction_l/value	/jointset/hip_l/hip_rotation_l/value	/jointset/back/lumbar_extension/value	/jointset/patellofemoral_l/patellar_flexion_l/value	/jointset/knee_l/knee_flexion_l/value	/jointset/knee_l/knee_adduction_l/value	/jointset/knee_l/knee_rotation_l/value	/jointset/ankle_l/ankle_angle_l/value	/jointset/subtalar_l/subtalar_angle_l/value	/jointset/ground_pelvis/pelvis_tilt/speed	/jointset/ground_pelvis/pelvis_tx/speed	/jointset/ground_pelvis/pelvis_ty/speed	/jointset/hip_l/hip_flexion_l/speed	/jointset/hip_l/hip_adduction_l/speed	/jointset/hip_l/hip_rotation_l/speed	/jointset/back/lumbar_extension/speed	/jointset/patellofemoral_l/patellar_flexion_l/speed	/jointset/knee_l/knee_flexion_l/speed	/jointset/knee_l/knee_adduction_l/speed	/jointset/knee_l/knee_rotation_l/speed	/jointset/ankle_l/ankle_angle_l/speed	/jointset/subtalar_l/subtalar_angle_l/speed	/forceset/tau_hip_flexion_l	/forceset/tau_hip_adduction_l	/forceset/tau_hip_rotation_l	/forceset/tau_knee_flexion_l	/forceset/tau_ankle_angle_l	/forceset/tau_subtalar_angle_l	/forceset/tau_lumbar_extension	lambda_cid13_p0	lambda_cid13_p1	lambda_cid13_p2	lambda_cid13_p3	lambda_cid13_p4	lambda_cid13_p5	lambda_cid14_p0	/jointset/ground_pelvis/pelvis_tilt/accel	/jointset/ground_pelvis/pelvis_tx/accel	/jointset/ground_pelvis/pelvis_ty/accel	/jointset/hip_l/hip_flexion_l/accel	/jointset/hip_l/hip_adduction_l/accel	/jointset/hip_l/hip_rotation_l/accel	/jointset/back/lumbar_extension/accel	/jointset/patellofemoral_l/patellar_flexion_l/accel	/jointset/knee_l/knee_flexion_l/accel	/jointset/knee_l/knee_adduction_l/accel	/jointset/knee_l/knee_rotation_l/accel	/jointset/ankle_l/ankle_angle_l/accel	/jointset/subtalar_l/subtalar_angle_l/accel	gamma_cid13_p0	gamma_cid13_p1	gamma_cid13_p2	gamma_cid13_p3	gamma_cid13_p4	gamma_cid13_p5	gamma_cid14_p0
1.5	0.02674243230785949	0.001209660455242308	0.8636664515938282	0.6083468864405825	-0.3208752549948036	-0.1469442535970672	-0.7873377032266197	0.7371181263782841	0.7371181263782467	-0.1056344191514582	-0.1745286023656155	0.1576587928984225	0.02786420016316054	0.2743357757727692	0.2126679833421551	0.3743898932783181	-1.813850900577973	0.09420747894265392	-0.614011380570204	0.844088982460261	-1.893550779602295	-1.893550779602292	-0.1316234567884506	1.886105814525717e-05	-0.4677850781038487	-0.05810412908202629	-0.1814022182349591	0.02873465058498936	-0.004880447580027126	-0.2182481440405219	0.05086432875724786	0.03742915951144959	0.2684713833897901	-25.92837617755495	-14.24675533170283	4.708188213283959	-5.604769250411988	-670.9264601611991	-73.32700888111405	-16.7233694168477	-0.08565985009775777	0.5635701881179892	-0.5699226541494278	-0.5578830322272038	0.4201140734791521	-0.2891038868995236	1.814894073122681	-0.8932690118044894	-0.8932690118044944	-0.2978675522956686	0.03998024493979425	-0.232379758259374	0.4065250117620562	1.448062601067283e-07	1.45381420144809e-06	-4.122753010731559e-07	1.404405820523866e-07	2.50177280809311e-07	6.077469917734311e-07	1.924289101006113e-07
1.51	0.02948144067141784	0.003364309972448259	0.8673811590067082	0.5901820411511695	-0.3199128503818616	-0.153099816066585	-0.778807610209412	0.7181401234111088	0.7181401234110072	-0.1069659723228719	-0.1745284199892202	0.1529697796671726	0.02730278929225645	0.2734324264287966	0.2182375742390211	0.3684772646683935	-1.818884822478863	0.09826958098448953	-0.6170334411377164	0.8618051047909676	-1.901786193195279	-1.901786193195217	-0.1346869433565348	2.048928315235532e-05	-0.4699348308149385	-0.05416095474616085	-0.174517734816261	0.02751820933750311	-0.004738431653304254	-0.215039470452434	0.05226903773767894	0.03672040409973609	0.2617306274192898	-25.2829179219478	-14.09273655023155	4.730212271932935	-5.639100366367714	-666.9682827799298	-73.35518699583622	-17.37785240102651	-0.09769830402366433	0.5500379938439551	-0.6130308512600954	-0.4411517377674521	0.3985087114708449	-0.2984292761582568	1.731293884953808	-0.7491711975549062	-0.7491711975459828	-0.3102870611404169	-0.01935263348172411	-0.1938073799216359	0.3905314771265543	1.234385252120652e-07	1.610589783600219e-06	-2.672062789387191e-07	1.676491317608507e-07	2.527254843013278e-07	6.248340631197761e-07	1.867393781047813e-07
1.52	0.03221041037605037	0.005573932289298271	0.8710345205561195	0.5719738556489907	-0.3189099746601238	-0.1592835335686696	-0.7701040914545171	0.6990876675750162	0.6990876675750046	-0.1083280999302373	-0.1745281426797689	0.1482617620383342	0.02678127373123653	0.2723280439857408	0.2236625432709675	0.3621207205845708	-1.822518943129651	0.1023017007037381	-0.6196423870844988	0.8787741299980135	-1.908441353368647	-1.908441353368525	-0.1377383440076578	3.784771765564674e-05	-0.4715859576215451	-0.05012506710518667	-0.1676332513976493	0.02630176809001052	-0.004596415725401023	-0.2118307968644244	0.05367374671810382	0.03601164868800886	0.254989871448721	-24.6358479845482	-13.94043526515094	4.75414988264991	-5.708414369310552	-663.0131597451667	-73.40940648384762	-18.02514647213764	-0.1258664699139739	0.5346458151338148	-0.6587057489291184	-0.2779227822070184	0.414117608961627	-0.2064809627536242	1.665474648390788	-0.5772183278811703	-0.5772183278811706	-0.2954503689033625	0.04312628683891073	-0.1326545773630787	0.4250676727836748	9.666671164887775e-08	1.720740013394171e-06	-1.364892116964226e-07	1.964139327155252e-07	2.314966083620531e-07	6.227096907434026e-07	1.794260333916316e-07
1.53	0.03492718490890154	0.007837005588690651	0.8746221231999247	0.5537366663895843	-0.3178668744426342	-0.1654916357678819	-0.7612346325532195	0.6799767968490228	0.6799767968490289	-0.1097202918131784	-0.1745278601543233	0.1435397918270833	0.02630067858562436	0.2709923022961003	0.2289196321266647	0.3553320473131137	-1.824677281801967	0.1063100544424421	-0.6219088128858702	0.8949731312492972	-1.913462940476854	-1.913462940476826	-0.1406992475858302	1.971089871886328e-05	-0.472726995225452	-0.04598267696806409	-0.1606275895674608	0.02500256773919107	-0.004518186581452851	-0.20880048342276	0.05509976452598465	0.03521099994299819	0.2481332675905542	-24.00003434555614	-13.74176829903839	4.765571776993737	-5.685170282506127	-659.2331034561564	-73.41345635164224	-18.65990376593317	-0.1426235700764582	0.5164163712603262	-0.6990802228653888	-0.148559615871244	0.392727646251818	-0.2261856589846765	1.575435012128654	-0.4241843088101976	-0.4241843088242681	-0.2959942871578261	-0.0241237872927736	-0.09261118075167546	0.4102258187941923	6.415306450038339e-08	1.78135080630756e-06	-2.102109652702487e-08	2.268322506192984e-07	1.850045855270316e-07	6.001731594116408e-07	1.703873876663297e-07
1.54	0.03762956291455531	0.01015168496673527	0.8781398126896927	0.5354851397022289	-0.3167839840097695	-0.171720294679147	-0.7522075192096833	0.6608237991706506	0.6608237991706492	-0.1111420095188998	-0.1745277270212686	0.1388088546740228	0.0258617875683067	0.2694487385429271	0.2339837590014143	0.3481380897771693	-1.825386428719389	0.1102597437782327	-0.6237537294934726	0.910305018445811	-1.916866743845855	-1.916866743845921	-0.1436435085593481	7.969238466539095e-06	-0.4733793459832487	-0.0417842414462383	-0.1536219277373611	0.02370336738834842	-0.004439957437613923	-0.2057701699811255	0.05652578233384937	0.03441035119794029	0.241276663732326	-23.36732254152023	-13.54339021406226	4.777990237589736	-5.678398031568231	-655.5198232147427	-73.44369470691912	-19.27232373574425	-0.1674308826200882	0.4960534189440528	-0.7397626018266179	0.01191556877151581	0.4023847283789029	-0.1221791240000479	1.492051837437059	-0.253661580040047	-0.2536615800400392	-0.2921218479724441	0.04440531857548376	-0.03491720814137071	0.4362767497241212	4.338836408032126e-08	1.807267021986503e-06	4.137445040555651e-08	2.424880810692304e-07	1.585285484141573e-07	5.823563680214288e-07	1.643820834119759e-07
